# xmcd
#
# Track frame offsets: 
#        150
#        11200
#        27075
#        40636
#        57008
#        73282
#        88281
#        108099
#        123995
#        135959
#        153802
#        169123
#
# Disc length: 2354 seconds
#
# Revision: 1
# Processed by: cddbd v1.5.2PL0 Copyright (c) Steve Scherf et al.
# Submitted via: ExactAudioCopy v1.0b3
#
DISCID=9109300c
DTITLE=Dianna Corcoran - Keep Breathing
DYEAR=2009
DGENRE=Country
TTITLE0=Thank You For Cheating On Me
TTITLE1=Keep Breathing
TTITLE2=Wrong Girl
TTITLE3=Homeless
TTITLE4=Never
TTITLE5=To Be Me
TTITLE6=Rocky Hill
TTITLE7=I Just Want My Happiness Back
TTITLE8=Here's Your Damn Song
TTITLE9=You'll Always Love Me More
TTITLE10=Come Back Home
TTITLE11=Keep Breathing (Reprise)
EXTD=
EXTT0=
EXTT1=
EXTT2=
EXTT3=
EXTT4=
EXTT5=
EXTT6=
EXTT7=
EXTT8=
EXTT9=
EXTT10=
EXTT11=
PLAYORDER=
